<?xml version="1.0" encoding="UTF-8"?>
<svg xmlns="http://www.w3.org/2000/svg" xmlns:xlink="http://www.w3.org/1999/xlink" width="24px" height="24px" viewBox="0 0 24 24" version="1.1">
<g id="surface1">
<path style=" stroke:none;fill-rule:nonzero;fill:rgb(0%,0%,0%);fill-opacity:1;" d="M 9.328125 8.710938 L 9.328125 4.003906 C 9.328125 3.679688 9.261719 3.378906 9.128906 3.085938 C 8.898438 2.582031 8.394531 2.183594 7.855469 2.0625 C 7.570312 1.996094 7.285156 2.007812 6.996094 2.007812 L 6.1875 2.007812 C 6.011719 2.007812 5.835938 2.023438 5.667969 2.0625 C 5.363281 2.136719 5.101562 2.292969 4.863281 2.488281 C 4.441406 2.835938 4.210938 3.398438 4.207031 3.933594 C 4.207031 4.019531 4.207031 4.101562 4.207031 4.1875 L 4.207031 8.710938 C 4.207031 9.050781 4.507812 9.382812 4.863281 9.367188 C 5.21875 9.347656 5.519531 9.078125 5.519531 8.710938 L 5.519531 4.460938 C 5.519531 4.226562 5.5 3.984375 5.53125 3.753906 C 5.523438 3.8125 5.515625 3.871094 5.507812 3.925781 C 5.527344 3.820312 5.554688 3.714844 5.597656 3.613281 C 5.574219 3.664062 5.550781 3.71875 5.53125 3.769531 C 5.574219 3.671875 5.625 3.582031 5.691406 3.496094 C 5.65625 3.539062 5.621094 3.582031 5.585938 3.628906 C 5.65625 3.535156 5.738281 3.457031 5.828125 3.386719 C 5.785156 3.421875 5.738281 3.453125 5.695312 3.488281 C 5.78125 3.425781 5.871094 3.371094 5.972656 3.328125 C 5.917969 3.351562 5.867188 3.375 5.8125 3.394531 C 5.914062 3.351562 6.019531 3.324219 6.128906 3.308594 C 6.070312 3.316406 6.011719 3.324219 5.953125 3.332031 C 6.21875 3.296875 6.5 3.320312 6.765625 3.320312 C 7.035156 3.320312 7.316406 3.296875 7.582031 3.332031 C 7.523438 3.324219 7.464844 3.316406 7.40625 3.308594 C 7.515625 3.324219 7.621094 3.351562 7.71875 3.394531 C 7.667969 3.375 7.617188 3.351562 7.5625 3.328125 C 7.660156 3.371094 7.753906 3.425781 7.839844 3.488281 C 7.796875 3.453125 7.75 3.421875 7.707031 3.386719 C 7.796875 3.457031 7.878906 3.535156 7.949219 3.628906 C 7.914062 3.582031 7.878906 3.539062 7.84375 3.496094 C 7.910156 3.582031 7.960938 3.671875 8.003906 3.769531 C 7.984375 3.71875 7.960938 3.664062 7.9375 3.613281 C 7.980469 3.714844 8.007812 3.820312 8.027344 3.925781 C 8.019531 3.871094 8.011719 3.8125 8.003906 3.753906 C 8.027344 3.945312 8.015625 4.148438 8.015625 4.34375 L 8.015625 8.710938 C 8.015625 9.050781 8.316406 9.382812 8.671875 9.367188 C 9.027344 9.347656 9.328125 9.078125 9.328125 8.710938 Z M 9.328125 8.710938 "/>
<path style=" stroke:none;fill-rule:nonzero;fill:rgb(0%,0%,0%);fill-opacity:1;" d="M 4.863281 6.34375 L 8.671875 6.34375 C 9.015625 6.34375 9.34375 6.039062 9.328125 5.6875 C 9.3125 5.332031 9.039062 5.03125 8.671875 5.03125 L 4.863281 5.03125 C 4.519531 5.03125 4.191406 5.332031 4.207031 5.6875 C 4.222656 6.042969 4.496094 6.34375 4.863281 6.34375 Z M 4.863281 6.34375 "/>
<path style=" stroke:none;fill-rule:nonzero;fill:rgb(0%,0%,0%);fill-opacity:1;" d="M 12.726562 11.492188 L 18.347656 11.492188 C 18.605469 11.492188 18.867188 11.496094 19.125 11.492188 C 19.128906 11.492188 19.132812 11.492188 19.136719 11.492188 C 19.480469 11.492188 19.808594 11.1875 19.792969 10.835938 C 19.777344 10.480469 19.503906 10.179688 19.136719 10.179688 L 13.515625 10.179688 C 13.253906 10.179688 12.996094 10.171875 12.738281 10.179688 C 12.734375 10.179688 12.730469 10.179688 12.726562 10.179688 C 12.382812 10.179688 12.054688 10.480469 12.070312 10.835938 C 12.085938 11.191406 12.355469 11.492188 12.726562 11.492188 Z M 12.726562 11.492188 "/>
<path style=" stroke:none;fill-rule:nonzero;fill:rgb(0%,0%,0%);fill-opacity:1;" d="M 17.339844 10.835938 C 17.347656 10.984375 17.335938 11.140625 17.324219 11.289062 C 17.316406 11.378906 17.304688 11.46875 17.292969 11.554688 C 17.300781 11.496094 17.308594 11.441406 17.316406 11.382812 C 17.25 11.890625 17.113281 12.394531 16.910156 12.867188 C 16.933594 12.816406 16.957031 12.765625 16.976562 12.710938 C 16.796875 13.140625 16.5625 13.542969 16.277344 13.914062 C 16.3125 13.867188 16.347656 13.824219 16.382812 13.78125 C 16.097656 14.144531 15.769531 14.472656 15.402344 14.757812 C 15.445312 14.722656 15.492188 14.6875 15.535156 14.65625 C 15.101562 14.988281 14.625 15.261719 14.121094 15.476562 C 14.171875 15.453125 14.222656 15.429688 14.277344 15.410156 C 13.746094 15.632812 13.195312 15.792969 12.632812 15.90625 C 12.480469 15.9375 12.320312 16.074219 12.242188 16.207031 C 12.160156 16.347656 12.125 16.554688 12.175781 16.710938 C 12.289062 17.070312 12.621094 17.242188 12.984375 17.171875 C 13.9375 16.976562 14.886719 16.644531 15.714844 16.125 C 16.410156 15.691406 17 15.136719 17.484375 14.480469 C 17.851562 13.980469 18.128906 13.414062 18.328125 12.824219 C 18.480469 12.371094 18.570312 11.902344 18.621094 11.425781 C 18.644531 11.234375 18.660156 11.035156 18.652344 10.84375 C 18.652344 10.839844 18.652344 10.835938 18.652344 10.835938 C 18.632812 10.492188 18.363281 10.160156 17.996094 10.179688 C 17.65625 10.191406 17.320312 10.46875 17.339844 10.835938 Z M 17.339844 10.835938 "/>
<path style=" stroke:none;fill-rule:nonzero;fill:rgb(0%,0%,0%);fill-opacity:1;" d="M 13.835938 13.050781 C 14.105469 13.707031 14.457031 14.296875 14.917969 14.839844 C 15.492188 15.519531 16.226562 16.074219 17.015625 16.476562 C 17.609375 16.777344 18.238281 17.007812 18.878906 17.171875 C 19.210938 17.253906 19.605469 17.0625 19.6875 16.710938 C 19.765625 16.371094 19.585938 15.996094 19.230469 15.90625 C 18.804688 15.796875 18.386719 15.664062 17.984375 15.492188 C 18.035156 15.515625 18.089844 15.535156 18.140625 15.558594 C 17.605469 15.332031 17.097656 15.042969 16.636719 14.6875 C 16.679688 14.722656 16.722656 14.757812 16.769531 14.792969 C 16.367188 14.480469 16 14.121094 15.691406 13.71875 C 15.722656 13.761719 15.757812 13.808594 15.792969 13.851562 C 15.492188 13.464844 15.242188 13.042969 15.054688 12.589844 C 15.074219 12.644531 15.097656 12.695312 15.121094 12.75 C 15.113281 12.734375 15.105469 12.714844 15.101562 12.699219 C 15.03125 12.535156 14.957031 12.402344 14.796875 12.308594 C 14.65625 12.226562 14.449219 12.191406 14.292969 12.242188 C 14.132812 12.292969 13.980469 12.390625 13.902344 12.542969 C 13.824219 12.6875 13.769531 12.890625 13.835938 13.050781 Z M 13.835938 13.050781 "/>
<path style=" stroke:none;fill-rule:nonzero;fill:rgb(0%,0%,0%);fill-opacity:1;" d="M 16.585938 10.835938 L 16.585938 9.609375 C 16.585938 9.265625 16.285156 8.9375 15.929688 8.953125 C 15.574219 8.96875 15.273438 9.238281 15.273438 9.609375 L 15.273438 10.835938 C 15.273438 11.175781 15.578125 11.507812 15.929688 11.492188 C 16.285156 11.476562 16.585938 11.203125 16.585938 10.835938 Z M 16.585938 10.835938 "/>
<path style=" stroke:none;fill-rule:nonzero;fill:rgb(0%,0%,0%);fill-opacity:1;" d="M 10.410156 14.511719 L 8.210938 14.511719 C 8.066406 14.511719 7.921875 14.515625 7.78125 14.5 C 7.839844 14.507812 7.894531 14.515625 7.953125 14.523438 C 7.820312 14.503906 7.691406 14.46875 7.566406 14.417969 C 7.621094 14.441406 7.671875 14.460938 7.722656 14.484375 C 7.59375 14.429688 7.476562 14.359375 7.363281 14.277344 C 7.410156 14.308594 7.453125 14.34375 7.496094 14.378906 C 7.394531 14.296875 7.304688 14.207031 7.222656 14.101562 C 7.257812 14.148438 7.289062 14.191406 7.324219 14.234375 C 7.238281 14.125 7.171875 14.003906 7.117188 13.875 C 7.136719 13.929688 7.160156 13.980469 7.183594 14.03125 C 7.132812 13.90625 7.097656 13.78125 7.078125 13.644531 C 7.085938 13.703125 7.09375 13.761719 7.101562 13.820312 C 7.085938 13.679688 7.089844 13.542969 7.089844 13.402344 L 7.089844 10.785156 C 7.089844 10.441406 6.785156 10.113281 6.433594 10.128906 C 6.074219 10.144531 5.777344 10.417969 5.777344 10.785156 L 5.777344 13.539062 C 5.777344 13.917969 5.851562 14.265625 6.011719 14.605469 C 6.257812 15.125 6.726562 15.496094 7.253906 15.699219 C 7.527344 15.804688 7.828125 15.824219 8.121094 15.824219 L 8.867188 15.824219 C 9.371094 15.824219 9.875 15.832031 10.378906 15.824219 C 10.390625 15.824219 10.398438 15.824219 10.410156 15.824219 C 10.753906 15.824219 11.082031 15.523438 11.066406 15.167969 C 11.050781 14.8125 10.777344 14.511719 10.410156 14.511719 Z M 10.410156 14.511719 "/>
<path style=" stroke:none;fill-rule:nonzero;fill:rgb(0%,0%,0%);fill-opacity:1;" d="M 11.519531 4.6875 L 15.535156 4.6875 C 15.761719 4.6875 15.996094 4.671875 16.21875 4.703125 C 16.160156 4.695312 16.105469 4.683594 16.046875 4.679688 C 16.179688 4.695312 16.308594 4.730469 16.433594 4.78125 C 16.378906 4.757812 16.328125 4.738281 16.277344 4.714844 C 16.40625 4.769531 16.523438 4.839844 16.636719 4.925781 C 16.589844 4.890625 16.546875 4.855469 16.503906 4.820312 C 16.605469 4.902344 16.695312 4.996094 16.777344 5.097656 C 16.742188 5.050781 16.710938 5.007812 16.675781 4.964844 C 16.761719 5.074219 16.828125 5.195312 16.882812 5.324219 C 16.863281 5.269531 16.839844 5.21875 16.816406 5.167969 C 16.867188 5.292969 16.902344 5.421875 16.921875 5.554688 C 16.914062 5.496094 16.90625 5.4375 16.898438 5.378906 C 16.933594 5.652344 16.914062 5.9375 16.914062 6.214844 L 16.914062 6.988281 C 16.914062 7.332031 17.214844 7.660156 17.570312 7.644531 C 17.925781 7.628906 18.226562 7.355469 18.226562 6.988281 C 18.226562 6.519531 18.226562 6.054688 18.226562 5.585938 C 18.21875 4.980469 17.964844 4.359375 17.507812 3.957031 C 17.089844 3.585938 16.566406 3.378906 16.007812 3.375 C 15.613281 3.371094 15.222656 3.375 14.832031 3.375 L 12.792969 3.375 C 12.375 3.375 11.957031 3.367188 11.539062 3.375 C 11.535156 3.375 11.527344 3.375 11.519531 3.375 C 11.175781 3.375 10.847656 3.675781 10.863281 4.03125 C 10.878906 4.386719 11.152344 4.6875 11.519531 4.6875 Z M 11.519531 4.6875 "/>
<path style=" stroke:none;fill-rule:nonzero;fill:rgb(0%,0%,0%);fill-opacity:1;" d="M 2.460938 19.476562 C 2.460938 19.480469 2.457031 19.480469 2.453125 19.480469 C 2.449219 19.480469 2.445312 19.480469 2.441406 19.480469 C 2.429688 19.480469 2.421875 19.480469 2.414062 19.472656 C 2.40625 19.464844 2.40625 19.457031 2.40625 19.445312 C 2.40625 19.4375 2.40625 19.425781 2.414062 19.421875 C 2.421875 19.414062 2.429688 19.410156 2.441406 19.410156 C 2.445312 19.410156 2.449219 19.414062 2.453125 19.414062 C 2.457031 19.414062 2.460938 19.414062 2.460938 19.417969 L 2.460938 19.429688 C 2.460938 19.429688 2.457031 19.425781 2.453125 19.425781 C 2.449219 19.425781 2.445312 19.425781 2.441406 19.425781 C 2.4375 19.425781 2.433594 19.425781 2.429688 19.429688 C 2.425781 19.433594 2.421875 19.441406 2.421875 19.445312 C 2.421875 19.453125 2.425781 19.460938 2.429688 19.464844 C 2.433594 19.46875 2.4375 19.46875 2.441406 19.46875 C 2.445312 19.46875 2.449219 19.46875 2.453125 19.46875 C 2.457031 19.46875 2.460938 19.464844 2.460938 19.464844 Z M 2.460938 19.476562 "/>
<path style=" stroke:none;fill-rule:nonzero;fill:rgb(0%,0%,0%);fill-opacity:1;" d="M 2.515625 19.445312 C 2.511719 19.441406 2.511719 19.441406 2.511719 19.441406 C 2.507812 19.441406 2.507812 19.441406 2.507812 19.441406 C 2.503906 19.441406 2.5 19.445312 2.496094 19.445312 C 2.492188 19.449219 2.492188 19.453125 2.492188 19.457031 L 2.492188 19.480469 L 2.476562 19.480469 L 2.476562 19.429688 L 2.492188 19.429688 L 2.492188 19.4375 C 2.496094 19.433594 2.496094 19.433594 2.5 19.429688 C 2.503906 19.429688 2.507812 19.429688 2.511719 19.429688 C 2.511719 19.429688 2.511719 19.429688 2.515625 19.429688 Z M 2.515625 19.445312 "/>
<path style=" stroke:none;fill-rule:nonzero;fill:rgb(0%,0%,0%);fill-opacity:1;" d="M 2.574219 19.457031 L 2.574219 19.460938 L 2.535156 19.460938 C 2.535156 19.464844 2.539062 19.464844 2.539062 19.46875 C 2.542969 19.472656 2.546875 19.472656 2.550781 19.472656 C 2.554688 19.472656 2.558594 19.472656 2.5625 19.46875 C 2.5625 19.46875 2.566406 19.46875 2.570312 19.464844 L 2.570312 19.476562 C 2.566406 19.480469 2.5625 19.480469 2.558594 19.480469 C 2.554688 19.480469 2.550781 19.480469 2.546875 19.480469 C 2.539062 19.480469 2.53125 19.480469 2.527344 19.476562 C 2.523438 19.472656 2.519531 19.464844 2.519531 19.457031 C 2.519531 19.449219 2.523438 19.441406 2.527344 19.4375 C 2.53125 19.429688 2.539062 19.429688 2.546875 19.429688 C 2.554688 19.429688 2.5625 19.429688 2.566406 19.4375 C 2.570312 19.441406 2.574219 19.449219 2.574219 19.457031 Z M 2.558594 19.449219 C 2.558594 19.445312 2.554688 19.445312 2.554688 19.441406 C 2.554688 19.441406 2.550781 19.441406 2.546875 19.441406 C 2.542969 19.441406 2.542969 19.441406 2.539062 19.441406 C 2.539062 19.445312 2.535156 19.445312 2.535156 19.449219 Z M 2.558594 19.449219 "/>
<path style=" stroke:none;fill-rule:nonzero;fill:rgb(0%,0%,0%);fill-opacity:1;" d="M 2.609375 19.457031 C 2.605469 19.457031 2.601562 19.457031 2.601562 19.460938 C 2.601562 19.460938 2.597656 19.460938 2.597656 19.464844 C 2.597656 19.46875 2.601562 19.46875 2.601562 19.46875 C 2.601562 19.472656 2.605469 19.472656 2.605469 19.472656 C 2.609375 19.472656 2.613281 19.46875 2.613281 19.46875 C 2.617188 19.464844 2.617188 19.464844 2.617188 19.460938 L 2.617188 19.457031 Z M 2.632812 19.453125 L 2.632812 19.480469 L 2.617188 19.480469 L 2.617188 19.472656 C 2.617188 19.476562 2.613281 19.480469 2.609375 19.480469 C 2.609375 19.480469 2.605469 19.480469 2.601562 19.480469 C 2.59375 19.480469 2.589844 19.480469 2.585938 19.476562 C 2.585938 19.476562 2.582031 19.472656 2.582031 19.464844 C 2.582031 19.460938 2.585938 19.457031 2.589844 19.453125 C 2.59375 19.449219 2.597656 19.449219 2.609375 19.449219 L 2.617188 19.449219 L 2.617188 19.445312 C 2.617188 19.445312 2.617188 19.441406 2.613281 19.441406 C 2.613281 19.441406 2.609375 19.441406 2.605469 19.441406 C 2.601562 19.441406 2.597656 19.441406 2.59375 19.441406 C 2.59375 19.441406 2.589844 19.441406 2.585938 19.445312 L 2.585938 19.429688 C 2.589844 19.429688 2.59375 19.429688 2.597656 19.429688 C 2.601562 19.429688 2.605469 19.429688 2.609375 19.429688 C 2.617188 19.429688 2.625 19.429688 2.628906 19.433594 C 2.632812 19.4375 2.632812 19.445312 2.632812 19.453125 Z M 2.632812 19.453125 "/>
<path style=" stroke:none;fill-rule:nonzero;fill:rgb(0%,0%,0%);fill-opacity:1;" d="M 2.667969 19.414062 L 2.667969 19.429688 L 2.683594 19.429688 L 2.683594 19.441406 L 2.667969 19.441406 L 2.667969 19.464844 C 2.667969 19.464844 2.667969 19.46875 2.667969 19.46875 C 2.667969 19.46875 2.671875 19.46875 2.675781 19.46875 L 2.683594 19.46875 L 2.683594 19.480469 L 2.667969 19.480469 C 2.664062 19.480469 2.65625 19.480469 2.65625 19.476562 C 2.652344 19.476562 2.652344 19.46875 2.652344 19.464844 L 2.652344 19.441406 L 2.644531 19.441406 L 2.644531 19.429688 L 2.652344 19.429688 L 2.652344 19.414062 Z M 2.667969 19.414062 "/>
<path style=" stroke:none;fill-rule:nonzero;fill:rgb(0%,0%,0%);fill-opacity:1;" d="M 2.746094 19.457031 L 2.746094 19.460938 L 2.707031 19.460938 C 2.707031 19.464844 2.710938 19.464844 2.710938 19.46875 C 2.714844 19.472656 2.71875 19.472656 2.722656 19.472656 C 2.726562 19.472656 2.730469 19.472656 2.730469 19.46875 C 2.734375 19.46875 2.738281 19.46875 2.742188 19.464844 L 2.742188 19.476562 C 2.738281 19.480469 2.734375 19.480469 2.730469 19.480469 C 2.726562 19.480469 2.722656 19.480469 2.71875 19.480469 C 2.710938 19.480469 2.703125 19.480469 2.699219 19.476562 C 2.695312 19.472656 2.691406 19.464844 2.691406 19.457031 C 2.691406 19.449219 2.695312 19.441406 2.699219 19.4375 C 2.703125 19.429688 2.710938 19.429688 2.71875 19.429688 C 2.726562 19.429688 2.734375 19.429688 2.738281 19.4375 C 2.742188 19.441406 2.746094 19.449219 2.746094 19.457031 Z M 2.730469 19.449219 C 2.730469 19.445312 2.726562 19.445312 2.726562 19.441406 C 2.722656 19.441406 2.722656 19.441406 2.71875 19.441406 C 2.714844 19.441406 2.714844 19.441406 2.710938 19.441406 C 2.710938 19.445312 2.707031 19.445312 2.707031 19.449219 Z M 2.730469 19.449219 "/>
<path style=" stroke:none;fill-rule:nonzero;fill:rgb(0%,0%,0%);fill-opacity:1;" d="M 2.792969 19.4375 L 2.792969 19.410156 L 2.808594 19.410156 L 2.808594 19.480469 L 2.792969 19.480469 L 2.792969 19.472656 C 2.789062 19.476562 2.789062 19.480469 2.785156 19.480469 C 2.78125 19.480469 2.78125 19.480469 2.777344 19.480469 C 2.769531 19.480469 2.765625 19.480469 2.761719 19.476562 C 2.757812 19.46875 2.753906 19.464844 2.753906 19.457031 C 2.753906 19.449219 2.757812 19.441406 2.761719 19.4375 C 2.765625 19.429688 2.769531 19.429688 2.777344 19.429688 C 2.78125 19.429688 2.78125 19.429688 2.785156 19.429688 C 2.789062 19.433594 2.789062 19.433594 2.792969 19.4375 Z M 2.78125 19.46875 C 2.785156 19.46875 2.789062 19.46875 2.789062 19.464844 C 2.792969 19.464844 2.792969 19.460938 2.792969 19.457031 C 2.792969 19.449219 2.792969 19.449219 2.789062 19.445312 C 2.789062 19.441406 2.785156 19.441406 2.78125 19.441406 C 2.777344 19.441406 2.777344 19.441406 2.773438 19.445312 C 2.773438 19.449219 2.773438 19.449219 2.773438 19.457031 C 2.773438 19.460938 2.773438 19.464844 2.773438 19.464844 C 2.777344 19.46875 2.777344 19.46875 2.78125 19.46875 Z M 2.78125 19.46875 "/>
<path style=" stroke:none;fill-rule:nonzero;fill:rgb(0%,0%,0%);fill-opacity:1;" d="M 2.886719 19.46875 C 2.886719 19.46875 2.890625 19.46875 2.894531 19.464844 C 2.894531 19.464844 2.894531 19.460938 2.894531 19.457031 C 2.894531 19.449219 2.894531 19.449219 2.894531 19.445312 C 2.890625 19.441406 2.886719 19.441406 2.886719 19.441406 C 2.882812 19.441406 2.878906 19.441406 2.875 19.445312 C 2.875 19.449219 2.875 19.449219 2.875 19.457031 C 2.875 19.460938 2.875 19.464844 2.875 19.464844 C 2.878906 19.46875 2.882812 19.46875 2.886719 19.46875 Z M 2.875 19.4375 C 2.875 19.433594 2.878906 19.433594 2.882812 19.429688 C 2.882812 19.429688 2.886719 19.429688 2.890625 19.429688 C 2.898438 19.429688 2.902344 19.429688 2.90625 19.4375 C 2.910156 19.441406 2.914062 19.449219 2.914062 19.457031 C 2.914062 19.464844 2.910156 19.46875 2.90625 19.476562 C 2.902344 19.480469 2.898438 19.480469 2.890625 19.480469 C 2.886719 19.480469 2.882812 19.480469 2.882812 19.480469 C 2.878906 19.480469 2.875 19.476562 2.875 19.472656 L 2.875 19.480469 L 2.859375 19.480469 L 2.859375 19.410156 L 2.875 19.410156 Z M 2.875 19.4375 "/>
<path style=" stroke:none;fill-rule:nonzero;fill:rgb(0%,0%,0%);fill-opacity:1;" d="M 2.917969 19.429688 L 2.933594 19.429688 L 2.949219 19.464844 L 2.960938 19.429688 L 2.976562 19.429688 L 2.957031 19.484375 C 2.953125 19.492188 2.949219 19.496094 2.945312 19.496094 C 2.945312 19.5 2.941406 19.5 2.9375 19.5 L 2.925781 19.5 L 2.925781 19.492188 L 2.929688 19.492188 C 2.933594 19.492188 2.9375 19.492188 2.9375 19.488281 C 2.9375 19.488281 2.941406 19.488281 2.941406 19.484375 Z M 2.917969 19.429688 "/>
<path style=" stroke:none;fill-rule:nonzero;fill:rgb(0%,0%,0%);fill-opacity:1;" d="M 3.058594 19.429688 L 3.058594 19.445312 C 3.054688 19.441406 3.050781 19.441406 3.046875 19.441406 C 3.046875 19.441406 3.042969 19.441406 3.039062 19.441406 C 3.035156 19.441406 3.035156 19.441406 3.03125 19.441406 C 3.03125 19.441406 3.03125 19.441406 3.03125 19.445312 C 3.03125 19.445312 3.03125 19.445312 3.03125 19.449219 C 3.03125 19.449219 3.035156 19.449219 3.039062 19.449219 C 3.050781 19.449219 3.054688 19.453125 3.058594 19.453125 C 3.0625 19.457031 3.0625 19.460938 3.0625 19.464844 C 3.0625 19.472656 3.058594 19.476562 3.054688 19.480469 C 3.050781 19.480469 3.046875 19.480469 3.039062 19.480469 C 3.035156 19.480469 3.03125 19.480469 3.027344 19.480469 C 3.023438 19.480469 3.019531 19.480469 3.015625 19.480469 L 3.015625 19.464844 C 3.019531 19.46875 3.023438 19.46875 3.027344 19.46875 C 3.03125 19.472656 3.035156 19.472656 3.035156 19.472656 C 3.039062 19.472656 3.042969 19.472656 3.042969 19.46875 C 3.046875 19.46875 3.046875 19.46875 3.046875 19.464844 C 3.042969 19.460938 3.042969 19.460938 3.039062 19.460938 L 3.035156 19.460938 C 3.027344 19.460938 3.023438 19.457031 3.019531 19.457031 C 3.015625 19.453125 3.015625 19.449219 3.015625 19.445312 C 3.015625 19.441406 3.015625 19.4375 3.019531 19.433594 C 3.023438 19.429688 3.03125 19.429688 3.039062 19.429688 C 3.042969 19.429688 3.042969 19.429688 3.046875 19.429688 C 3.050781 19.429688 3.054688 19.429688 3.058594 19.429688 Z M 3.058594 19.429688 "/>
<path style=" stroke:none;fill-rule:nonzero;fill:rgb(0%,0%,0%);fill-opacity:1;" d="M 3.125 19.449219 L 3.125 19.480469 L 3.109375 19.480469 L 3.109375 19.457031 C 3.109375 19.453125 3.109375 19.449219 3.109375 19.449219 C 3.109375 19.445312 3.109375 19.445312 3.109375 19.445312 C 3.109375 19.441406 3.105469 19.441406 3.105469 19.441406 C 3.105469 19.441406 3.101562 19.441406 3.101562 19.441406 C 3.097656 19.441406 3.09375 19.441406 3.09375 19.445312 C 3.089844 19.449219 3.089844 19.453125 3.089844 19.457031 L 3.089844 19.480469 L 3.074219 19.480469 L 3.074219 19.410156 L 3.089844 19.410156 L 3.089844 19.4375 C 3.09375 19.433594 3.097656 19.433594 3.097656 19.429688 C 3.101562 19.429688 3.105469 19.429688 3.109375 19.429688 C 3.113281 19.429688 3.117188 19.429688 3.121094 19.433594 C 3.125 19.4375 3.125 19.441406 3.125 19.449219 Z M 3.125 19.449219 "/>
<path style=" stroke:none;fill-rule:nonzero;fill:rgb(0%,0%,0%);fill-opacity:1;" d="M 3.164062 19.457031 C 3.160156 19.457031 3.15625 19.457031 3.15625 19.460938 C 3.15625 19.460938 3.152344 19.460938 3.152344 19.464844 C 3.152344 19.46875 3.15625 19.46875 3.15625 19.46875 C 3.15625 19.472656 3.160156 19.472656 3.160156 19.472656 C 3.164062 19.472656 3.167969 19.46875 3.167969 19.46875 C 3.171875 19.464844 3.171875 19.464844 3.171875 19.460938 L 3.171875 19.457031 Z M 3.1875 19.453125 L 3.1875 19.480469 L 3.171875 19.480469 L 3.171875 19.472656 C 3.171875 19.476562 3.167969 19.480469 3.164062 19.480469 C 3.164062 19.480469 3.160156 19.480469 3.15625 19.480469 C 3.148438 19.480469 3.144531 19.480469 3.140625 19.476562 C 3.140625 19.476562 3.136719 19.472656 3.136719 19.464844 C 3.136719 19.460938 3.140625 19.457031 3.144531 19.453125 C 3.148438 19.449219 3.152344 19.449219 3.164062 19.449219 L 3.171875 19.449219 L 3.171875 19.445312 C 3.171875 19.445312 3.171875 19.441406 3.167969 19.441406 C 3.167969 19.441406 3.164062 19.441406 3.160156 19.441406 C 3.15625 19.441406 3.152344 19.441406 3.148438 19.441406 C 3.148438 19.441406 3.144531 19.441406 3.140625 19.445312 L 3.140625 19.429688 C 3.144531 19.429688 3.148438 19.429688 3.152344 19.429688 C 3.15625 19.429688 3.160156 19.429688 3.164062 19.429688 C 3.171875 19.429688 3.179688 19.429688 3.183594 19.433594 C 3.1875 19.4375 3.1875 19.445312 3.1875 19.453125 Z M 3.1875 19.453125 "/>
<path style=" stroke:none;fill-rule:nonzero;fill:rgb(0%,0%,0%);fill-opacity:1;" d="M 3.246094 19.429688 L 3.246094 19.445312 C 3.242188 19.441406 3.238281 19.441406 3.234375 19.441406 C 3.230469 19.441406 3.226562 19.441406 3.226562 19.441406 C 3.222656 19.441406 3.21875 19.441406 3.21875 19.441406 C 3.214844 19.441406 3.214844 19.441406 3.214844 19.445312 C 3.214844 19.445312 3.214844 19.445312 3.21875 19.449219 C 3.21875 19.449219 3.222656 19.449219 3.222656 19.449219 L 3.226562 19.449219 C 3.234375 19.449219 3.242188 19.453125 3.242188 19.453125 C 3.246094 19.457031 3.25 19.460938 3.25 19.464844 C 3.25 19.472656 3.246094 19.476562 3.242188 19.480469 C 3.238281 19.480469 3.230469 19.480469 3.222656 19.480469 C 3.21875 19.480469 3.21875 19.480469 3.214844 19.480469 C 3.210938 19.480469 3.207031 19.480469 3.203125 19.480469 L 3.203125 19.464844 C 3.207031 19.46875 3.210938 19.46875 3.210938 19.46875 C 3.214844 19.472656 3.21875 19.472656 3.222656 19.472656 C 3.226562 19.472656 3.226562 19.472656 3.230469 19.46875 C 3.230469 19.46875 3.234375 19.46875 3.234375 19.464844 C 3.234375 19.464844 3.230469 19.464844 3.230469 19.464844 C 3.230469 19.460938 3.226562 19.460938 3.222656 19.460938 C 3.214844 19.460938 3.207031 19.457031 3.207031 19.457031 C 3.203125 19.453125 3.203125 19.449219 3.203125 19.445312 C 3.203125 19.441406 3.203125 19.4375 3.207031 19.433594 C 3.210938 19.429688 3.214844 19.429688 3.222656 19.429688 C 3.226562 19.429688 3.230469 19.429688 3.234375 19.429688 C 3.238281 19.429688 3.242188 19.429688 3.246094 19.429688 Z M 3.246094 19.429688 "/>
<path style=" stroke:none;fill-rule:nonzero;fill:rgb(0%,0%,0%);fill-opacity:1;" d="M 3.3125 19.449219 L 3.3125 19.480469 L 3.296875 19.480469 L 3.296875 19.457031 C 3.296875 19.453125 3.296875 19.449219 3.292969 19.449219 C 3.292969 19.445312 3.292969 19.445312 3.292969 19.445312 C 3.292969 19.441406 3.292969 19.441406 3.292969 19.441406 C 3.289062 19.441406 3.289062 19.441406 3.289062 19.441406 C 3.285156 19.441406 3.28125 19.441406 3.277344 19.445312 C 3.277344 19.449219 3.277344 19.453125 3.277344 19.457031 L 3.277344 19.480469 L 3.261719 19.480469 L 3.261719 19.410156 L 3.277344 19.410156 L 3.277344 19.4375 C 3.277344 19.433594 3.28125 19.433594 3.285156 19.429688 C 3.289062 19.429688 3.289062 19.429688 3.292969 19.429688 C 3.300781 19.429688 3.304688 19.429688 3.308594 19.433594 C 3.308594 19.4375 3.3125 19.441406 3.3125 19.449219 Z M 3.3125 19.449219 "/>
<path style=" stroke:none;fill-rule:nonzero;fill:rgb(0%,0%,0%);fill-opacity:1;" d="M 3.351562 19.457031 C 3.347656 19.457031 3.34375 19.457031 3.34375 19.460938 C 3.339844 19.460938 3.339844 19.460938 3.339844 19.464844 C 3.339844 19.46875 3.339844 19.46875 3.339844 19.46875 C 3.34375 19.472656 3.34375 19.472656 3.347656 19.472656 C 3.351562 19.472656 3.351562 19.46875 3.355469 19.46875 C 3.355469 19.464844 3.359375 19.464844 3.359375 19.460938 L 3.359375 19.457031 Z M 3.375 19.453125 L 3.375 19.480469 L 3.359375 19.480469 L 3.359375 19.472656 C 3.355469 19.476562 3.355469 19.480469 3.351562 19.480469 C 3.347656 19.480469 3.34375 19.480469 3.339844 19.480469 C 3.335938 19.480469 3.332031 19.480469 3.328125 19.476562 C 3.324219 19.476562 3.324219 19.472656 3.324219 19.464844 C 3.324219 19.460938 3.324219 19.457031 3.328125 19.453125 C 3.332031 19.449219 3.339844 19.449219 3.347656 19.449219 L 3.359375 19.449219 L 3.359375 19.445312 C 3.359375 19.445312 3.355469 19.441406 3.355469 19.441406 C 3.351562 19.441406 3.351562 19.441406 3.347656 19.441406 C 3.34375 19.441406 3.339844 19.441406 3.335938 19.441406 C 3.332031 19.441406 3.332031 19.441406 3.328125 19.445312 L 3.328125 19.429688 C 3.332031 19.429688 3.335938 19.429688 3.339844 19.429688 C 3.34375 19.429688 3.34375 19.429688 3.347656 19.429688 C 3.359375 19.429688 3.363281 19.429688 3.367188 19.433594 C 3.371094 19.4375 3.375 19.445312 3.375 19.453125 Z M 3.375 19.453125 "/>
<path style=" stroke:none;fill-rule:nonzero;fill:rgb(0%,0%,0%);fill-opacity:1;" d="M 3.441406 19.449219 L 3.441406 19.480469 L 3.425781 19.480469 L 3.425781 19.457031 C 3.425781 19.453125 3.425781 19.449219 3.425781 19.449219 C 3.425781 19.445312 3.425781 19.445312 3.425781 19.445312 C 3.421875 19.441406 3.421875 19.441406 3.421875 19.441406 C 3.421875 19.441406 3.417969 19.441406 3.417969 19.441406 C 3.414062 19.441406 3.410156 19.441406 3.410156 19.445312 C 3.40625 19.449219 3.40625 19.453125 3.40625 19.457031 L 3.40625 19.480469 L 3.390625 19.480469 L 3.390625 19.429688 L 3.40625 19.429688 L 3.40625 19.4375 C 3.410156 19.433594 3.410156 19.433594 3.414062 19.429688 C 3.417969 19.429688 3.421875 19.429688 3.421875 19.429688 C 3.429688 19.429688 3.433594 19.429688 3.4375 19.433594 C 3.441406 19.4375 3.441406 19.441406 3.441406 19.449219 Z M 3.441406 19.449219 "/>
<path style=" stroke:none;fill-rule:nonzero;fill:rgb(0%,0%,0%);fill-opacity:1;" d="M 3.457031 19.410156 L 3.472656 19.410156 L 3.472656 19.449219 L 3.492188 19.429688 L 3.511719 19.429688 L 3.484375 19.453125 L 3.511719 19.480469 L 3.492188 19.480469 L 3.472656 19.460938 L 3.472656 19.480469 L 3.457031 19.480469 Z M 3.457031 19.410156 "/>
<path style=" stroke:none;fill-rule:nonzero;fill:rgb(0%,0%,0%);fill-opacity:1;" d="M 3.59375 19.429688 L 3.59375 19.445312 C 3.589844 19.441406 3.585938 19.441406 3.582031 19.441406 C 3.578125 19.441406 3.574219 19.441406 3.574219 19.441406 C 3.570312 19.441406 3.566406 19.441406 3.566406 19.441406 C 3.5625 19.441406 3.5625 19.441406 3.5625 19.445312 C 3.5625 19.445312 3.5625 19.445312 3.566406 19.449219 C 3.566406 19.449219 3.570312 19.449219 3.570312 19.449219 L 3.574219 19.449219 C 3.582031 19.449219 3.589844 19.453125 3.589844 19.453125 C 3.59375 19.457031 3.597656 19.460938 3.597656 19.464844 C 3.597656 19.472656 3.59375 19.476562 3.589844 19.480469 C 3.585938 19.480469 3.578125 19.480469 3.570312 19.480469 C 3.566406 19.480469 3.5625 19.480469 3.5625 19.480469 C 3.558594 19.480469 3.554688 19.480469 3.550781 19.480469 L 3.550781 19.464844 C 3.554688 19.46875 3.554688 19.46875 3.558594 19.46875 C 3.5625 19.472656 3.566406 19.472656 3.570312 19.472656 C 3.574219 19.472656 3.574219 19.472656 3.578125 19.46875 C 3.578125 19.46875 3.582031 19.46875 3.582031 19.464844 C 3.582031 19.464844 3.578125 19.464844 3.578125 19.464844 C 3.578125 19.460938 3.574219 19.460938 3.570312 19.460938 C 3.5625 19.460938 3.554688 19.457031 3.554688 19.457031 C 3.550781 19.453125 3.550781 19.449219 3.550781 19.445312 C 3.550781 19.441406 3.550781 19.4375 3.554688 19.433594 C 3.558594 19.429688 3.5625 19.429688 3.570312 19.429688 C 3.574219 19.429688 3.578125 19.429688 3.582031 19.429688 C 3.585938 19.429688 3.589844 19.429688 3.59375 19.429688 Z M 3.59375 19.429688 "/>
<path style=" stroke:none;fill-rule:nonzero;fill:rgb(0%,0%,0%);fill-opacity:1;" d="M 3.609375 19.429688 L 3.625 19.429688 L 3.625 19.480469 L 3.609375 19.480469 Z M 3.609375 19.410156 L 3.625 19.410156 L 3.625 19.421875 L 3.609375 19.421875 Z M 3.609375 19.410156 "/>
<path style=" stroke:none;fill-rule:nonzero;fill:rgb(0%,0%,0%);fill-opacity:1;" d="M 3.691406 19.449219 L 3.691406 19.480469 L 3.675781 19.480469 L 3.675781 19.457031 C 3.675781 19.453125 3.675781 19.449219 3.675781 19.449219 C 3.675781 19.445312 3.675781 19.445312 3.675781 19.445312 C 3.671875 19.441406 3.671875 19.441406 3.671875 19.441406 C 3.671875 19.441406 3.667969 19.441406 3.667969 19.441406 C 3.664062 19.441406 3.660156 19.441406 3.660156 19.445312 C 3.65625 19.449219 3.65625 19.453125 3.65625 19.457031 L 3.65625 19.480469 L 3.640625 19.480469 L 3.640625 19.429688 L 3.65625 19.429688 L 3.65625 19.4375 C 3.660156 19.433594 3.660156 19.433594 3.664062 19.429688 C 3.667969 19.429688 3.671875 19.429688 3.671875 19.429688 C 3.679688 19.429688 3.683594 19.429688 3.6875 19.433594 C 3.691406 19.4375 3.691406 19.441406 3.691406 19.449219 Z M 3.691406 19.449219 "/>
<path style=" stroke:none;fill-rule:nonzero;fill:rgb(0%,0%,0%);fill-opacity:1;" d="M 3.742188 19.472656 C 3.738281 19.476562 3.738281 19.476562 3.734375 19.480469 C 3.730469 19.480469 3.726562 19.480469 3.722656 19.480469 C 3.71875 19.480469 3.714844 19.480469 3.710938 19.472656 C 3.703125 19.46875 3.703125 19.460938 3.703125 19.453125 C 3.703125 19.449219 3.703125 19.441406 3.710938 19.4375 C 3.714844 19.429688 3.71875 19.429688 3.722656 19.429688 C 3.726562 19.429688 3.730469 19.429688 3.734375 19.429688 C 3.738281 19.433594 3.738281 19.433594 3.742188 19.4375 L 3.742188 19.429688 L 3.757812 19.429688 L 3.757812 19.476562 C 3.757812 19.484375 3.753906 19.492188 3.75 19.496094 C 3.746094 19.5 3.738281 19.5 3.726562 19.5 C 3.722656 19.5 3.722656 19.5 3.71875 19.5 C 3.714844 19.5 3.710938 19.5 3.710938 19.5 L 3.710938 19.484375 C 3.710938 19.488281 3.714844 19.488281 3.71875 19.488281 C 3.71875 19.492188 3.722656 19.492188 3.726562 19.492188 C 3.730469 19.492188 3.734375 19.488281 3.738281 19.488281 C 3.742188 19.484375 3.742188 19.480469 3.742188 19.476562 Z M 3.730469 19.441406 C 3.726562 19.441406 3.726562 19.441406 3.722656 19.445312 C 3.722656 19.445312 3.71875 19.449219 3.71875 19.453125 C 3.71875 19.460938 3.722656 19.464844 3.722656 19.464844 C 3.726562 19.46875 3.726562 19.46875 3.730469 19.46875 C 3.734375 19.46875 3.738281 19.46875 3.738281 19.464844 C 3.742188 19.464844 3.742188 19.460938 3.742188 19.453125 C 3.742188 19.449219 3.742188 19.445312 3.738281 19.445312 C 3.738281 19.441406 3.734375 19.441406 3.730469 19.441406 Z M 3.730469 19.441406 "/>
<path style=" stroke:none;fill-rule:nonzero;fill:rgb(0%,0%,0%);fill-opacity:1;" d="M 3.824219 19.449219 L 3.824219 19.480469 L 3.808594 19.480469 L 3.808594 19.457031 C 3.808594 19.453125 3.808594 19.449219 3.808594 19.449219 C 3.808594 19.445312 3.808594 19.445312 3.808594 19.445312 C 3.808594 19.441406 3.804688 19.441406 3.804688 19.441406 C 3.804688 19.441406 3.804688 19.441406 3.800781 19.441406 C 3.796875 19.441406 3.796875 19.441406 3.792969 19.445312 C 3.789062 19.449219 3.789062 19.453125 3.789062 19.457031 L 3.789062 19.480469 L 3.773438 19.480469 L 3.773438 19.410156 L 3.789062 19.410156 L 3.789062 19.4375 C 3.792969 19.433594 3.796875 19.433594 3.796875 19.429688 C 3.800781 19.429688 3.804688 19.429688 3.808594 19.429688 C 3.8125 19.429688 3.816406 19.429688 3.820312 19.433594 C 3.824219 19.4375 3.824219 19.441406 3.824219 19.449219 Z M 3.824219 19.449219 "/>
<path style=" stroke:none;fill-rule:nonzero;fill:rgb(0%,0%,0%);fill-opacity:1;" d="M 2.441406 19.503906 L 2.441406 19.515625 L 2.433594 19.515625 C 2.429688 19.515625 2.429688 19.515625 2.425781 19.515625 C 2.425781 19.515625 2.425781 19.519531 2.425781 19.519531 L 2.425781 19.523438 L 2.441406 19.523438 L 2.441406 19.535156 L 2.425781 19.535156 L 2.425781 19.574219 L 2.410156 19.574219 L 2.410156 19.535156 L 2.402344 19.535156 L 2.402344 19.523438 L 2.410156 19.523438 L 2.410156 19.519531 C 2.410156 19.515625 2.410156 19.511719 2.414062 19.507812 C 2.417969 19.503906 2.421875 19.503906 2.429688 19.503906 Z M 2.441406 19.503906 "/>
<path style=" stroke:none;fill-rule:nonzero;fill:rgb(0%,0%,0%);fill-opacity:1;" d="M 2.488281 19.539062 C 2.484375 19.535156 2.484375 19.535156 2.484375 19.535156 C 2.480469 19.535156 2.480469 19.535156 2.476562 19.535156 C 2.472656 19.535156 2.46875 19.539062 2.46875 19.539062 C 2.464844 19.542969 2.464844 19.546875 2.464844 19.550781 L 2.464844 19.574219 L 2.449219 19.574219 L 2.449219 19.523438 L 2.464844 19.523438 L 2.464844 19.53125 C 2.46875 19.527344 2.46875 19.527344 2.472656 19.523438 C 2.476562 19.523438 2.476562 19.523438 2.480469 19.523438 L 2.484375 19.523438 C 2.484375 19.523438 2.484375 19.523438 2.488281 19.523438 Z M 2.488281 19.539062 "/>
<path style=" stroke:none;fill-rule:nonzero;fill:rgb(0%,0%,0%);fill-opacity:1;" d="M 2.519531 19.535156 C 2.515625 19.535156 2.511719 19.535156 2.511719 19.539062 C 2.507812 19.539062 2.507812 19.542969 2.507812 19.550781 C 2.507812 19.554688 2.507812 19.558594 2.511719 19.5625 C 2.511719 19.5625 2.515625 19.566406 2.519531 19.566406 C 2.523438 19.566406 2.523438 19.5625 2.527344 19.5625 C 2.53125 19.558594 2.53125 19.554688 2.53125 19.550781 C 2.53125 19.542969 2.53125 19.539062 2.527344 19.539062 C 2.523438 19.535156 2.523438 19.535156 2.519531 19.535156 Z M 2.519531 19.523438 C 2.527344 19.523438 2.535156 19.523438 2.539062 19.53125 C 2.546875 19.535156 2.546875 19.542969 2.546875 19.550781 C 2.546875 19.558594 2.546875 19.566406 2.539062 19.570312 C 2.535156 19.574219 2.527344 19.574219 2.519531 19.574219 C 2.511719 19.574219 2.503906 19.574219 2.5 19.570312 C 2.492188 19.566406 2.492188 19.558594 2.492188 19.550781 C 2.492188 19.542969 2.492188 19.535156 2.5 19.53125 C 2.503906 19.523438 2.511719 19.523438 2.519531 19.523438 Z M 2.519531 19.523438 "/>
<path style=" stroke:none;fill-rule:nonzero;fill:rgb(0%,0%,0%);fill-opacity:1;" d="M 2.605469 19.53125 C 2.609375 19.527344 2.609375 19.527344 2.613281 19.523438 C 2.617188 19.523438 2.621094 19.523438 2.625 19.523438 C 2.628906 19.523438 2.632812 19.523438 2.636719 19.527344 C 2.640625 19.53125 2.640625 19.535156 2.640625 19.542969 L 2.640625 19.574219 L 2.625 19.574219 L 2.625 19.546875 C 2.625 19.542969 2.625 19.539062 2.625 19.539062 C 2.621094 19.535156 2.621094 19.535156 2.617188 19.535156 C 2.617188 19.535156 2.613281 19.535156 2.613281 19.539062 C 2.609375 19.542969 2.609375 19.542969 2.609375 19.550781 L 2.609375 19.574219 L 2.59375 19.574219 L 2.59375 19.546875 C 2.59375 19.542969 2.589844 19.539062 2.589844 19.539062 C 2.589844 19.535156 2.589844 19.535156 2.585938 19.535156 C 2.582031 19.535156 2.578125 19.535156 2.578125 19.539062 C 2.578125 19.542969 2.574219 19.546875 2.574219 19.550781 L 2.574219 19.574219 L 2.558594 19.574219 L 2.558594 19.523438 L 2.574219 19.523438 L 2.574219 19.53125 C 2.578125 19.527344 2.578125 19.527344 2.582031 19.523438 C 2.585938 19.523438 2.589844 19.523438 2.589844 19.523438 C 2.59375 19.523438 2.597656 19.523438 2.601562 19.523438 C 2.601562 19.527344 2.605469 19.53125 2.605469 19.53125 Z M 2.605469 19.53125 "/>
<path style=" stroke:none;fill-rule:nonzero;fill:rgb(0%,0%,0%);fill-opacity:1;" d="M 2.707031 19.507812 L 2.707031 19.523438 L 2.726562 19.523438 L 2.726562 19.535156 L 2.707031 19.535156 L 2.707031 19.558594 C 2.707031 19.558594 2.707031 19.5625 2.707031 19.5625 C 2.710938 19.5625 2.710938 19.5625 2.714844 19.5625 L 2.722656 19.5625 L 2.722656 19.574219 L 2.710938 19.574219 C 2.703125 19.574219 2.699219 19.574219 2.695312 19.570312 C 2.691406 19.570312 2.691406 19.5625 2.691406 19.558594 L 2.691406 19.535156 L 2.683594 19.535156 L 2.683594 19.523438 L 2.691406 19.523438 L 2.691406 19.507812 Z M 2.707031 19.507812 "/>
<path style=" stroke:none;fill-rule:nonzero;fill:rgb(0%,0%,0%);fill-opacity:1;" d="M 2.785156 19.542969 L 2.785156 19.574219 L 2.769531 19.574219 L 2.769531 19.550781 C 2.769531 19.546875 2.769531 19.542969 2.769531 19.542969 C 2.769531 19.539062 2.769531 19.539062 2.769531 19.539062 C 2.765625 19.535156 2.765625 19.535156 2.765625 19.535156 C 2.765625 19.535156 2.761719 19.535156 2.761719 19.535156 C 2.757812 19.535156 2.753906 19.535156 2.753906 19.539062 C 2.75 19.542969 2.75 19.546875 2.75 19.550781 L 2.75 19.574219 L 2.734375 19.574219 L 2.734375 19.503906 L 2.75 19.503906 L 2.75 19.53125 C 2.753906 19.527344 2.753906 19.527344 2.757812 19.523438 C 2.761719 19.523438 2.765625 19.523438 2.769531 19.523438 C 2.773438 19.523438 2.777344 19.523438 2.78125 19.527344 C 2.785156 19.53125 2.785156 19.535156 2.785156 19.542969 Z M 2.785156 19.542969 "/>
<path style=" stroke:none;fill-rule:nonzero;fill:rgb(0%,0%,0%);fill-opacity:1;" d="M 2.851562 19.550781 L 2.851562 19.554688 L 2.8125 19.554688 C 2.816406 19.558594 2.816406 19.558594 2.816406 19.5625 C 2.820312 19.566406 2.824219 19.566406 2.828125 19.566406 C 2.832031 19.566406 2.835938 19.566406 2.839844 19.5625 C 2.84375 19.5625 2.847656 19.5625 2.851562 19.558594 L 2.851562 19.570312 C 2.847656 19.574219 2.84375 19.574219 2.839844 19.574219 C 2.835938 19.574219 2.832031 19.574219 2.828125 19.574219 C 2.816406 19.574219 2.808594 19.574219 2.804688 19.570312 C 2.800781 19.566406 2.796875 19.558594 2.796875 19.550781 C 2.796875 19.542969 2.800781 19.535156 2.804688 19.53125 C 2.808594 19.523438 2.816406 19.523438 2.824219 19.523438 C 2.832031 19.523438 2.839844 19.523438 2.84375 19.53125 C 2.851562 19.535156 2.851562 19.542969 2.851562 19.550781 Z M 2.835938 19.542969 C 2.835938 19.539062 2.835938 19.539062 2.832031 19.535156 C 2.832031 19.535156 2.828125 19.535156 2.824219 19.535156 C 2.824219 19.535156 2.820312 19.535156 2.816406 19.535156 C 2.816406 19.539062 2.816406 19.539062 2.8125 19.542969 Z M 2.835938 19.542969 "/>
<path style=" stroke:none;fill-rule:nonzero;fill:rgb(0%,0%,0%);fill-opacity:1;" d="M 2.898438 19.507812 L 2.917969 19.507812 L 2.941406 19.554688 L 2.941406 19.507812 L 2.960938 19.507812 L 2.960938 19.574219 L 2.941406 19.574219 L 2.914062 19.527344 L 2.914062 19.574219 L 2.898438 19.574219 Z M 2.898438 19.507812 "/>
<path style=" stroke:none;fill-rule:nonzero;fill:rgb(0%,0%,0%);fill-opacity:1;" d="M 3 19.535156 C 2.996094 19.535156 2.992188 19.535156 2.992188 19.539062 C 2.988281 19.539062 2.988281 19.542969 2.988281 19.550781 C 2.988281 19.554688 2.988281 19.558594 2.992188 19.5625 C 2.992188 19.5625 2.996094 19.566406 3 19.566406 C 3.003906 19.566406 3.007812 19.5625 3.007812 19.5625 C 3.011719 19.558594 3.011719 19.554688 3.011719 19.550781 C 3.011719 19.542969 3.011719 19.539062 3.007812 19.539062 C 3.007812 19.535156 3.003906 19.535156 3 19.535156 Z M 3 19.523438 C 3.007812 19.523438 3.015625 19.523438 3.019531 19.53125 C 3.027344 19.535156 3.027344 19.542969 3.027344 19.550781 C 3.027344 19.558594 3.027344 19.566406 3.019531 19.570312 C 3.015625 19.574219 3.007812 19.574219 3 19.574219 C 2.992188 19.574219 2.984375 19.574219 2.980469 19.570312 C 2.972656 19.566406 2.972656 19.558594 2.972656 19.550781 C 2.972656 19.542969 2.972656 19.535156 2.980469 19.53125 C 2.984375 19.523438 2.992188 19.523438 3 19.523438 Z M 3 19.523438 "/>
<path style=" stroke:none;fill-rule:nonzero;fill:rgb(0%,0%,0%);fill-opacity:1;" d="M 3.039062 19.554688 L 3.039062 19.523438 L 3.054688 19.523438 L 3.054688 19.558594 C 3.054688 19.558594 3.058594 19.558594 3.058594 19.558594 C 3.058594 19.5625 3.058594 19.5625 3.058594 19.5625 C 3.0625 19.5625 3.0625 19.5625 3.0625 19.5625 C 3.066406 19.5625 3.070312 19.5625 3.070312 19.558594 C 3.074219 19.558594 3.074219 19.554688 3.074219 19.550781 L 3.074219 19.523438 L 3.089844 19.523438 L 3.089844 19.574219 L 3.074219 19.574219 L 3.074219 19.566406 C 3.070312 19.570312 3.070312 19.574219 3.066406 19.574219 C 3.0625 19.574219 3.0625 19.574219 3.058594 19.574219 C 3.050781 19.574219 3.046875 19.574219 3.042969 19.570312 C 3.042969 19.566406 3.039062 19.5625 3.039062 19.554688 Z M 3.039062 19.554688 "/>
<path style=" stroke:none;fill-rule:nonzero;fill:rgb(0%,0%,0%);fill-opacity:1;" d="M 3.160156 19.542969 L 3.160156 19.574219 L 3.140625 19.574219 L 3.140625 19.550781 C 3.140625 19.546875 3.140625 19.542969 3.140625 19.542969 C 3.140625 19.539062 3.140625 19.539062 3.140625 19.539062 C 3.140625 19.535156 3.140625 19.535156 3.136719 19.535156 C 3.136719 19.535156 3.136719 19.535156 3.132812 19.535156 C 3.128906 19.535156 3.128906 19.535156 3.125 19.539062 C 3.125 19.542969 3.125 19.546875 3.125 19.550781 L 3.125 19.574219 L 3.105469 19.574219 L 3.105469 19.523438 L 3.125 19.523438 L 3.125 19.53125 C 3.125 19.527344 3.128906 19.527344 3.132812 19.523438 C 3.132812 19.523438 3.136719 19.523438 3.140625 19.523438 C 3.144531 19.523438 3.152344 19.523438 3.152344 19.527344 C 3.15625 19.53125 3.160156 19.535156 3.160156 19.542969 Z M 3.160156 19.542969 "/>
<path style=" stroke:none;fill-rule:nonzero;fill:rgb(0%,0%,0%);fill-opacity:1;" d="M 3.207031 19.507812 L 3.238281 19.507812 C 3.246094 19.507812 3.25 19.507812 3.257812 19.511719 C 3.261719 19.515625 3.261719 19.523438 3.261719 19.527344 C 3.261719 19.535156 3.261719 19.542969 3.257812 19.546875 C 3.25 19.550781 3.246094 19.550781 3.238281 19.550781 L 3.226562 19.550781 L 3.226562 19.574219 L 3.207031 19.574219 Z M 3.226562 19.519531 L 3.226562 19.539062 L 3.234375 19.539062 C 3.238281 19.539062 3.242188 19.539062 3.242188 19.535156 C 3.246094 19.535156 3.246094 19.53125 3.246094 19.527344 C 3.246094 19.527344 3.246094 19.523438 3.242188 19.523438 C 3.242188 19.519531 3.238281 19.519531 3.234375 19.519531 Z M 3.226562 19.519531 "/>
<path style=" stroke:none;fill-rule:nonzero;fill:rgb(0%,0%,0%);fill-opacity:1;" d="M 3.3125 19.539062 C 3.3125 19.535156 3.308594 19.535156 3.308594 19.535156 C 3.308594 19.535156 3.304688 19.535156 3.304688 19.535156 C 3.300781 19.535156 3.296875 19.539062 3.292969 19.539062 C 3.292969 19.542969 3.292969 19.546875 3.292969 19.550781 L 3.292969 19.574219 L 3.273438 19.574219 L 3.273438 19.523438 L 3.292969 19.523438 L 3.292969 19.53125 C 3.292969 19.527344 3.296875 19.527344 3.296875 19.523438 C 3.300781 19.523438 3.304688 19.523438 3.308594 19.523438 C 3.3125 19.523438 3.3125 19.523438 3.3125 19.523438 Z M 3.3125 19.539062 "/>
<path style=" stroke:none;fill-rule:nonzero;fill:rgb(0%,0%,0%);fill-opacity:1;" d="M 3.34375 19.535156 C 3.34375 19.535156 3.339844 19.535156 3.335938 19.539062 C 3.335938 19.539062 3.335938 19.542969 3.335938 19.550781 C 3.335938 19.554688 3.335938 19.558594 3.335938 19.5625 C 3.339844 19.5625 3.34375 19.566406 3.34375 19.566406 C 3.347656 19.566406 3.351562 19.5625 3.355469 19.5625 C 3.355469 19.558594 3.355469 19.554688 3.355469 19.550781 C 3.355469 19.542969 3.355469 19.539062 3.355469 19.539062 C 3.351562 19.535156 3.347656 19.535156 3.34375 19.535156 Z M 3.34375 19.523438 C 3.355469 19.523438 3.363281 19.523438 3.367188 19.53125 C 3.371094 19.535156 3.375 19.542969 3.375 19.550781 C 3.375 19.558594 3.371094 19.566406 3.367188 19.570312 C 3.363281 19.574219 3.355469 19.574219 3.34375 19.574219 C 3.335938 19.574219 3.328125 19.574219 3.324219 19.570312 C 3.320312 19.566406 3.316406 19.558594 3.316406 19.550781 C 3.316406 19.542969 3.320312 19.535156 3.324219 19.53125 C 3.328125 19.523438 3.335938 19.523438 3.34375 19.523438 Z M 3.34375 19.523438 "/>
<path style=" stroke:none;fill-rule:nonzero;fill:rgb(0%,0%,0%);fill-opacity:1;" d="M 3.386719 19.523438 L 3.402344 19.523438 L 3.402344 19.574219 C 3.402344 19.582031 3.398438 19.585938 3.398438 19.589844 C 3.394531 19.59375 3.390625 19.59375 3.382812 19.59375 L 3.375 19.59375 L 3.375 19.585938 L 3.378906 19.585938 C 3.378906 19.585938 3.382812 19.582031 3.382812 19.582031 C 3.386719 19.582031 3.386719 19.578125 3.386719 19.574219 Z M 3.386719 19.503906 L 3.402344 19.503906 L 3.402344 19.515625 L 3.386719 19.515625 Z M 3.386719 19.503906 "/>
<path style=" stroke:none;fill-rule:nonzero;fill:rgb(0%,0%,0%);fill-opacity:1;" d="M 3.46875 19.550781 L 3.46875 19.554688 L 3.429688 19.554688 C 3.429688 19.558594 3.433594 19.558594 3.433594 19.5625 C 3.4375 19.566406 3.441406 19.566406 3.445312 19.566406 C 3.449219 19.566406 3.453125 19.566406 3.457031 19.5625 C 3.457031 19.5625 3.460938 19.5625 3.464844 19.558594 L 3.464844 19.570312 C 3.460938 19.574219 3.457031 19.574219 3.453125 19.574219 C 3.449219 19.574219 3.445312 19.574219 3.441406 19.574219 C 3.433594 19.574219 3.425781 19.574219 3.421875 19.570312 C 3.417969 19.566406 3.414062 19.558594 3.414062 19.550781 C 3.414062 19.542969 3.417969 19.535156 3.421875 19.53125 C 3.425781 19.523438 3.433594 19.523438 3.441406 19.523438 C 3.449219 19.523438 3.457031 19.523438 3.460938 19.53125 C 3.464844 19.535156 3.46875 19.542969 3.46875 19.550781 Z M 3.453125 19.542969 C 3.453125 19.539062 3.453125 19.539062 3.449219 19.535156 C 3.449219 19.535156 3.445312 19.535156 3.441406 19.535156 C 3.4375 19.535156 3.4375 19.535156 3.433594 19.535156 C 3.433594 19.539062 3.429688 19.539062 3.429688 19.542969 Z M 3.453125 19.542969 "/>
<path style=" stroke:none;fill-rule:nonzero;fill:rgb(0%,0%,0%);fill-opacity:1;" d="M 3.523438 19.523438 L 3.523438 19.539062 C 3.519531 19.539062 3.519531 19.535156 3.515625 19.535156 C 3.515625 19.535156 3.511719 19.535156 3.507812 19.535156 C 3.503906 19.535156 3.5 19.535156 3.5 19.539062 C 3.496094 19.542969 3.496094 19.542969 3.496094 19.550781 C 3.496094 19.554688 3.496094 19.558594 3.5 19.5625 C 3.5 19.5625 3.503906 19.566406 3.507812 19.566406 C 3.511719 19.566406 3.515625 19.566406 3.515625 19.5625 C 3.519531 19.5625 3.519531 19.5625 3.523438 19.558594 L 3.523438 19.574219 C 3.519531 19.574219 3.519531 19.574219 3.515625 19.574219 C 3.511719 19.574219 3.507812 19.574219 3.507812 19.574219 C 3.496094 19.574219 3.492188 19.574219 3.484375 19.570312 C 3.480469 19.566406 3.476562 19.558594 3.476562 19.550781 C 3.476562 19.542969 3.480469 19.535156 3.484375 19.53125 C 3.492188 19.523438 3.496094 19.523438 3.507812 19.523438 C 3.507812 19.523438 3.511719 19.523438 3.515625 19.523438 C 3.519531 19.523438 3.519531 19.523438 3.523438 19.523438 Z M 3.523438 19.523438 "/>
<path style=" stroke:none;fill-rule:nonzero;fill:rgb(0%,0%,0%);fill-opacity:1;" d="M 3.554688 19.507812 L 3.554688 19.523438 L 3.570312 19.523438 L 3.570312 19.535156 L 3.554688 19.535156 L 3.554688 19.558594 C 3.554688 19.558594 3.554688 19.5625 3.554688 19.5625 C 3.558594 19.5625 3.558594 19.5625 3.5625 19.5625 L 3.570312 19.5625 L 3.570312 19.574219 L 3.554688 19.574219 C 3.550781 19.574219 3.546875 19.574219 3.542969 19.570312 C 3.539062 19.570312 3.539062 19.5625 3.539062 19.558594 L 3.539062 19.535156 L 3.53125 19.535156 L 3.53125 19.523438 L 3.539062 19.523438 L 3.539062 19.507812 Z M 3.554688 19.507812 "/>
</g>
</svg>
