<svg width="133" height="133" viewBox="0 0 133 133" fill="none" xmlns="http://www.w3.org/2000/svg">
<g clip-path="url(#clip0)">
<path d="M129.305 70.1971C129.305 62.5792 127.95 55.2753 125.463 48.5181C123.764 68.4275 113.15 78.6537 102.059 73.8916C91.6701 69.4287 98.6711 52.0315 99.1883 43.7301C100.06 29.658 99.144 13.5502 73.5821 0.157837C84.2037 20.4773 74.8124 33.1012 64.963 33.8696C54.0348 34.7231 44.0266 24.4784 47.721 7.85337C35.7584 16.6683 35.4111 31.5052 39.1019 41.1034C42.9515 51.1079 38.9467 59.4204 29.5591 60.344C19.0669 61.3785 13.2371 49.1092 18.6125 29.5582C9.30989 40.5123 3.69434 54.6989 3.69434 70.1971C3.69434 104.884 31.8128 133.003 66.4999 133.003C101.187 133.003 129.305 104.884 129.305 70.1971Z" fill="#F4900C"/>
<path d="M104.9 88.6656C105.447 100.059 95.4389 104.526 90.0524 102.368C82.2719 99.2539 84.3593 93.9043 82.3569 82.821C80.3545 71.7376 72.659 64.0421 61.269 60.6543C69.5815 84.0512 56.662 92.6741 49.8901 94.2146C42.9741 95.7885 36.0249 94.2109 35.2305 79.411C27.1619 87.4427 22.167 98.5556 22.167 110.836C22.167 112.196 22.252 113.533 22.3702 114.863C33.7121 126.072 49.2916 133.003 66.5003 133.003C83.709 133.003 99.2885 126.072 110.63 114.863C110.749 113.533 110.834 112.196 110.834 110.836C110.834 102.756 108.676 95.1863 104.9 88.6656Z" fill="#FFCC4D"/>
</g>
<defs>
<clipPath id="clip0">
<rect width="133" height="133" fill="white"/>
</clipPath>
</defs>
</svg>
