<svg width="24" height="24" viewBox="0 0 24 24" fill="none" xmlns="http://www.w3.org/2000/svg">
<g clip-path="url(#clip0)">
<path d="M3.24067 6.09803C3.86733 5.66003 4.812 5.74403 5.37467 6.2087L4.72933 5.2707C4.21 4.53003 4.396 3.7287 5.13734 3.2087C5.87867 2.6907 7.97934 4.08337 7.97934 4.08337C7.45534 3.33537 7.55334 2.38737 8.30133 1.8627C9.04934 1.34003 10.0813 1.5207 10.6053 2.27003L17.552 12.0834L16.6667 20.6667L9.278 17.972L2.83333 8.4167C2.30467 7.66403 2.48733 6.62603 3.24067 6.09803Z" fill="#EF9645"/>
<path d="M1.79669 11.5574C1.79669 11.5574 1.04202 10.4574 2.14269 9.70339C3.24202 8.94939 3.99602 10.0487 3.99602 10.0487L7.49669 15.1541C7.61735 14.9527 7.74935 14.7541 7.89669 14.5581L3.03802 7.47339C3.03802 7.47339 2.28402 6.37405 3.38402 5.62005C4.48335 4.86605 5.23735 5.96539 5.23735 5.96539L9.80735 12.6301C9.97735 12.4914 10.1514 12.3521 10.3307 12.2154L5.03269 4.48805C5.03269 4.48805 4.27869 3.38872 5.37869 2.63472C6.47802 1.88072 7.23202 2.98005 7.23202 2.98005L12.53 10.7061C12.7247 10.5867 12.9174 10.4834 13.1107 10.3741L8.15869 3.15272C8.15869 3.15272 7.40469 2.05339 8.50402 1.29939C9.60335 0.545387 10.3574 1.64472 10.3574 1.64472L15.5934 9.28072L16.3894 10.4421C13.0907 12.7047 12.7767 16.9614 14.6614 19.7101C15.038 20.2601 15.588 19.8834 15.588 19.8834C13.326 16.5841 14.0167 12.8767 17.316 10.6147L16.3434 5.74672C16.3434 5.74672 15.98 4.46405 17.262 4.10005C18.5447 3.73672 18.9087 5.01939 18.9087 5.01939L20.032 8.35539C20.4774 9.67805 20.9514 10.9961 21.5787 12.2427C23.35 15.7627 22.292 20.1374 18.952 22.4287C15.3087 24.9267 10.328 23.9981 7.82935 20.3554L1.79669 11.5574Z" fill="#FFDC5D"/>
<path d="M7.99996 21.3613C5.3333 21.3613 2.63863 18.6666 2.63863 15.9999C2.63863 15.6313 2.36863 15.3333 1.99996 15.3333C1.6313 15.3333 1.3053 15.6313 1.3053 15.9999C1.3053 19.9999 3.99996 22.6946 7.99996 22.6946C8.36863 22.6946 8.66663 22.3686 8.66663 21.9999C8.66663 21.6313 8.36863 21.3613 7.99996 21.3613Z" fill="#5DADEC"/>
<path d="M4.66667 22.6666C2.66667 22.6666 1.33333 21.3333 1.33333 19.3333C1.33333 18.9646 1.03533 18.6666 0.666667 18.6666C0.298 18.6666 0 18.9646 0 19.3333C0 21.9999 2 23.9999 4.66667 23.9999C5.03533 23.9999 5.33333 23.7019 5.33333 23.3333C5.33333 22.9646 5.03533 22.6666 4.66667 22.6666ZM16 1.33325C15.632 1.33325 15.3333 1.63192 15.3333 1.99992C15.3333 2.36792 15.632 2.66659 16 2.66659C18.6667 2.66659 21.3333 5.05925 21.3333 7.99992C21.3333 8.36792 21.632 8.66658 22 8.66658C22.368 8.66658 22.6667 8.36792 22.6667 7.99992C22.6667 4.32392 20 1.33325 16 1.33325Z" fill="#5DADEC"/>
<path d="M19.3333 0.0279541C18.9653 0.0279541 18.6666 0.298621 18.6666 0.666621C18.6666 1.03462 18.9653 1.36129 19.3333 1.36129C21.3333 1.36129 22.6386 2.84462 22.6386 4.66662C22.6386 5.03462 22.9646 5.33329 23.3333 5.33329C23.702 5.33329 23.972 5.03462 23.972 4.66662C23.972 2.10862 22 0.0279541 19.3333 0.0279541Z" fill="#5DADEC"/>
</g>
<defs>
<clipPath id="clip0">
<rect width="24" height="24" fill="white"/>
</clipPath>
</defs>
</svg>
