<svg width="24" height="24" viewBox="0 0 24 24" fill="none" xmlns="http://www.w3.org/2000/svg">
<path d="M16.095 13.7475C17.109 12.9047 17.8386 11.7698 18.1844 10.4974C18.5301 9.22503 18.4752 7.87698 18.0272 6.6369C17.5791 5.39682 16.7597 4.32501 15.6805 3.56745C14.6013 2.8099 13.3148 2.40344 11.9962 2.40344C10.6777 2.40344 9.39122 2.8099 8.31202 3.56745C7.23282 4.32501 6.41339 5.39682 5.96533 6.6369C5.51728 7.87698 5.46238 9.22503 5.80813 10.4974C6.15388 11.7698 6.88346 12.9047 7.8975 13.7475L5.535 19.14C5.48438 19.2631 5.46743 19.3974 5.48588 19.5292C5.50433 19.661 5.55753 19.7856 5.64 19.89C5.72788 19.9996 5.84478 20.0823 5.97738 20.1288C6.10998 20.1752 6.25295 20.1834 6.39 20.1525L8.1825 19.77L9.2475 21.27C9.31651 21.3669 9.40759 21.4461 9.51323 21.5008C9.61886 21.5556 9.73601 21.5845 9.855 21.585H9.9375C10.0687 21.5712 10.194 21.523 10.3007 21.4454C10.4073 21.3677 10.4916 21.2632 10.545 21.1425L12 17.8575L13.5 21.15C13.5544 21.2693 13.6391 21.3722 13.7457 21.4486C13.8523 21.5249 13.977 21.5719 14.1075 21.585H14.1825C14.3015 21.5845 14.4186 21.5556 14.5243 21.5008C14.6299 21.4461 14.721 21.3669 14.79 21.27L15.855 19.77L17.6475 20.1525C17.7845 20.1834 17.9275 20.1752 18.0601 20.1288C18.1927 20.0823 18.3096 19.9996 18.3975 19.89C18.48 19.7856 18.5332 19.661 18.5516 19.5292C18.5701 19.3974 18.5531 19.2631 18.5025 19.14L16.095 13.7475ZM9.6825 19.335L9.0975 18.5175C9.02768 18.422 8.93624 18.3443 8.83065 18.2909C8.72507 18.2374 8.60834 18.2097 8.49 18.21C8.43776 18.2026 8.38474 18.2026 8.3325 18.21L7.5 18.405L9.0525 14.88L11.25 15.75L9.6825 19.335ZM7.0725 8.83501C7.06953 7.86162 7.35537 6.90921 7.89385 6.09832C8.43233 5.28742 9.19924 4.65448 10.0976 4.27957C10.9959 3.90467 11.9852 3.80466 12.9404 3.99219C13.8955 4.17973 14.7736 4.64638 15.4635 5.3331C16.1533 6.01983 16.624 6.89575 16.8159 7.85005C17.0078 8.80435 16.9123 9.79413 16.5415 10.6941C16.1708 11.5942 15.5413 12.364 14.7329 12.9061C13.9245 13.4483 12.9734 13.7385 12 13.74C11.3533 13.741 10.7127 13.6145 10.1149 13.3677C9.5171 13.1208 8.97384 12.7586 8.51618 12.3016C8.05852 11.8447 7.69545 11.302 7.44773 10.7046C7.2 10.1071 7.0725 9.46675 7.0725 8.82001V8.83501ZM15.6675 18.225C15.5276 18.1974 15.3828 18.2103 15.2499 18.2621C15.1171 18.3139 15.0018 18.4025 14.9175 18.5175L14.3175 19.35L12.8775 16.185C12.852 16.1395 12.8218 16.0968 12.7875 16.0575L12.96 15.66L14.97 14.91L16.5 18.405L15.6675 18.225Z" fill="white"/>
<path d="M15.51 7.68745C15.4666 7.55416 15.3866 7.43572 15.2792 7.34557C15.1718 7.25542 15.0413 7.19718 14.9025 7.17745L13.365 6.95245L12.675 5.55745C12.6132 5.43123 12.5171 5.32492 12.3978 5.25066C12.2784 5.1764 12.1406 5.13717 12 5.13745C11.8595 5.13717 11.7216 5.1764 11.6023 5.25066C11.4829 5.32492 11.3869 5.43123 11.325 5.55745L10.635 6.95245L9.13502 7.17745C8.99766 7.19865 8.86889 7.25759 8.76308 7.34771C8.65728 7.43783 8.57859 7.55558 8.53581 7.68782C8.49302 7.82005 8.48783 7.96158 8.5208 8.0966C8.55377 8.23162 8.62361 8.35482 8.72252 8.45245L9.83252 9.53995L9.57002 11.04C9.54325 11.1806 9.55727 11.3259 9.61043 11.4588C9.66359 11.5917 9.75366 11.7066 9.87002 11.79C10 11.8805 10.1541 11.9301 10.3125 11.9325C10.4334 11.9328 10.5523 11.9018 10.6575 11.8425L12.0375 11.0925L13.41 11.8425C13.5336 11.9071 13.6728 11.936 13.8119 11.9259C13.951 11.9158 14.0846 11.8672 14.1976 11.7853C14.3105 11.7035 14.3984 11.5918 14.4514 11.4628C14.5044 11.3338 14.5204 11.1926 14.4975 11.055L14.235 9.55495L15.345 8.46745C15.4431 8.3661 15.5106 8.23916 15.5397 8.10119C15.5689 7.96323 15.5586 7.81983 15.51 7.68745ZM12.8775 8.73745C12.7896 8.82253 12.7238 8.92783 12.6858 9.04418C12.6479 9.16053 12.6391 9.28439 12.66 9.40495L12.735 9.82495L12.3525 9.62245C12.245 9.56596 12.1253 9.53644 12.0038 9.53644C11.8823 9.53644 11.7626 9.56596 11.655 9.62245L11.28 9.82495L11.3475 9.40495C11.3694 9.285 11.3617 9.16152 11.3251 9.04521C11.2885 8.9289 11.2242 8.82326 11.1375 8.73745L10.83 8.43745L11.25 8.37745C11.3702 8.35941 11.4842 8.31243 11.5821 8.24058C11.6801 8.16872 11.7592 8.07413 11.8125 7.96495L12.0075 7.58245L12.195 7.96495C12.2484 8.07413 12.3274 8.16872 12.4254 8.24058C12.5234 8.31243 12.6374 8.35941 12.7575 8.37745L13.185 8.43745L12.8775 8.73745Z" fill="white"/>
</svg>
