<svg width="24" height="24" viewBox="0 0 24 24" fill="none" xmlns="http://www.w3.org/2000/svg">
<path d="M16.9862 13.6023C18.2265 12.5917 19.119 11.2309 19.5419 9.70525C19.9648 8.17955 19.8977 6.56314 19.3496 5.0762C18.8015 3.58926 17.7992 2.30408 16.4791 1.39573C15.159 0.487372 13.5853 0 11.9725 0C10.3596 0 8.78595 0.487372 7.46585 1.39573C6.14576 2.30408 5.14341 3.58926 4.59534 5.0762C4.04726 6.56314 3.98012 8.17955 4.40305 9.70525C4.82598 11.2309 5.71841 12.5917 6.9588 13.6023L4.06894 20.0683C4.00703 20.2159 3.98629 20.3769 4.00886 20.535C4.03143 20.693 4.0965 20.8423 4.19738 20.9676C4.30488 21.099 4.44787 21.1982 4.61007 21.2538C4.77227 21.3095 4.94715 21.3194 5.11479 21.2823L7.30742 20.8237L8.61015 22.6223C8.69457 22.7385 8.80598 22.8334 8.9352 22.8991C9.06441 22.9647 9.20771 22.9993 9.35326 23H9.45417C9.6147 22.9835 9.76794 22.9257 9.89842 22.8325C10.0289 22.7394 10.132 22.6141 10.1973 22.4694L11.9771 18.5305L13.8119 22.4784C13.8784 22.6214 13.9821 22.7449 14.1125 22.8364C14.2429 22.9279 14.3954 22.9843 14.555 23H14.6467C14.7923 22.9993 14.9356 22.9647 15.0648 22.8991C15.194 22.8334 15.3054 22.7385 15.3899 22.6223L16.6926 20.8237L18.8852 21.2823C19.0529 21.3194 19.2277 21.3095 19.3899 21.2538C19.5521 21.1982 19.6951 21.099 19.8026 20.9676C19.9035 20.8423 19.9686 20.693 19.9911 20.535C20.0137 20.3769 19.993 20.2159 19.9311 20.0683L16.9862 13.6023ZM9.14225 20.3021L8.42667 19.3219C8.34126 19.2073 8.22941 19.1142 8.10026 19.0501C7.9711 18.986 7.82831 18.9528 7.68356 18.9531C7.61966 18.9443 7.5548 18.9443 7.4909 18.9531L6.47257 19.187L8.37162 14.9603L11.0596 16.0034L9.14225 20.3021ZM5.94964 7.71189C5.94601 6.54472 6.29566 5.40272 6.95434 4.4304C7.61302 3.45808 8.55112 2.69914 9.64995 2.24961C10.7488 1.80007 11.959 1.68015 13.1273 1.90502C14.2957 2.12989 15.3698 2.68943 16.2137 3.51286C17.0575 4.33629 17.6333 5.38659 17.868 6.53085C18.1027 7.67512 17.9859 8.86193 17.5324 9.94111C17.0788 11.0203 16.3089 11.9433 15.32 12.5935C14.3311 13.2436 13.1677 13.5915 11.9771 13.5933C11.186 13.5945 10.4024 13.4428 9.67116 13.1468C8.93994 12.8509 8.27541 12.4165 7.71559 11.8686C7.15577 11.3207 6.71165 10.6699 6.40863 9.95359C6.10561 9.23725 5.94964 8.46938 5.94964 7.6939V7.71189ZM16.4632 18.9711C16.2921 18.9381 16.1149 18.9535 15.9524 19.0156C15.79 19.0777 15.6489 19.184 15.5458 19.3219L14.8119 20.3201L13.0504 16.525C13.0193 16.4705 12.9824 16.4192 12.9404 16.3722L13.1514 15.8955L15.61 14.9962L17.4816 19.187L16.4632 18.9711Z" fill="#222525"/>
<path d="M15.9479 6.00221C15.8986 5.84527 15.808 5.70583 15.6862 5.5997C15.5645 5.49357 15.4165 5.42499 15.2592 5.40177L13.5161 5.13687L12.7339 3.49448C12.6638 3.34587 12.5548 3.22071 12.4195 3.13328C12.2842 3.04585 12.128 2.99967 11.9686 3C11.8093 2.99967 11.653 3.04585 11.5177 3.13328C11.3824 3.22071 11.2735 3.34587 11.2034 3.49448L10.4211 5.13687L8.72061 5.40177C8.56489 5.42672 8.4189 5.49612 8.29895 5.60222C8.17899 5.70832 8.08979 5.84695 8.04129 6.00263C7.99278 6.15832 7.98689 6.32494 8.02427 6.48391C8.06165 6.64287 8.14083 6.78792 8.25296 6.90287L9.51136 8.18322L9.21377 9.94922C9.18341 10.1148 9.19931 10.2859 9.25957 10.4423C9.31984 10.5988 9.42196 10.7341 9.55387 10.8322C9.70126 10.9388 9.87595 10.9972 10.0555 11C10.1925 11.0005 10.3273 10.9639 10.4467 10.894L12.0111 10.011L13.5671 10.894C13.7073 10.9702 13.865 11.0042 14.0228 10.9923C14.1805 10.9804 14.3319 10.9231 14.46 10.8268C14.588 10.7305 14.6877 10.599 14.7478 10.4471C14.8079 10.2952 14.8259 10.1289 14.8 9.96688L14.5024 8.20088L15.7608 6.92053C15.872 6.8012 15.9485 6.65175 15.9816 6.48932C16.0147 6.32689 16.003 6.15806 15.9479 6.00221ZM12.9634 7.23841C12.8637 7.33857 12.7891 7.46255 12.7462 7.59953C12.7032 7.73652 12.6931 7.88234 12.7169 8.02428L12.8019 8.51876L12.3683 8.28035C12.2463 8.21383 12.1106 8.17908 11.9729 8.17908C11.8351 8.17908 11.6995 8.21383 11.5775 8.28035L11.1524 8.51876L11.2289 8.02428C11.2537 7.88306 11.245 7.73768 11.2035 7.60074C11.162 7.46381 11.089 7.33944 10.9908 7.23841L10.6422 6.88521L11.1184 6.81457C11.2546 6.79332 11.3838 6.73802 11.4949 6.65342C11.606 6.56882 11.6956 6.45746 11.7561 6.32892L11.9771 5.87859L12.1897 6.32892C12.2502 6.45746 12.3398 6.56882 12.4509 6.65342C12.562 6.73802 12.6912 6.79332 12.8274 6.81457L13.3121 6.88521L12.9634 7.23841Z" fill="#222525"/>
</svg>
