<svg width="32" height="32" viewBox="0 0 32 32" fill="none" xmlns="http://www.w3.org/2000/svg">
<path d="M26.1345 13.3992L23.1658 13.0822L23.11 12.9703L24.9712 10.6398C25.1169 10.4606 25.1909 10.2335 25.1789 10.0027C25.1668 9.77187 25.0696 9.55376 24.9061 9.39069L22.5795 7.04154C22.4167 6.87774 22.199 6.78036 21.9685 6.7683C21.7381 6.75624 21.5114 6.83036 21.3325 6.97629L19.0059 8.84069L18.8942 8.78476L18.5778 5.82968C18.5525 5.60062 18.4434 5.38906 18.2716 5.23585C18.0997 5.08264 17.8773 4.99862 17.6472 5.00002H14.3249C14.0948 4.99862 13.8724 5.08264 13.7005 5.23585C13.5287 5.38906 13.4196 5.60062 13.3943 5.82968L13.0778 8.8034L12.9662 8.85933L10.6396 6.99493C10.4607 6.84901 10.234 6.77489 10.0035 6.78694C9.77311 6.799 9.55536 6.89638 9.39257 7.06018L7.0567 9.39069C6.89317 9.55376 6.79596 9.77187 6.78392 10.0027C6.77188 10.2335 6.84588 10.4606 6.99155 10.6398L8.8528 12.9703L8.79697 13.0822L5.82827 13.3992C5.5996 13.4245 5.38841 13.5338 5.23545 13.7059C5.0825 13.8781 4.99862 14.1009 5.00002 14.3314V17.6686C4.99862 17.8991 5.0825 18.1219 5.23545 18.294C5.38841 18.4662 5.5996 18.5755 5.82827 18.6008L8.79697 18.9178L8.8528 19.0297L6.99155 21.3602C6.84588 21.5394 6.77188 21.7665 6.78392 21.9973C6.79596 22.2281 6.89317 22.4462 7.0567 22.6093L9.40187 24.9398C9.56467 25.1036 9.78241 25.201 10.0128 25.2131C10.2433 25.2251 10.47 25.151 10.6489 25.0051L12.9755 23.1407L13.0871 23.1966L13.4036 26.1703C13.4289 26.3994 13.538 26.6109 13.7098 26.7642C13.8817 26.9174 14.1041 27.0014 14.3342 27H17.6658C17.8959 27.0014 18.1183 26.9174 18.2902 26.7642C18.462 26.6109 18.5711 26.3994 18.5964 26.1703L18.9129 23.1966L19.0245 23.1407L21.3511 25.0051C21.53 25.151 21.7567 25.2251 21.9872 25.2131C22.2176 25.201 22.4353 25.1036 22.5981 24.9398L24.9433 22.5907C25.1068 22.4276 25.204 22.2095 25.2161 21.9787C25.2281 21.7478 25.1541 21.5208 25.0084 21.3415L23.1472 19.011L23.203 18.8991L26.1717 18.5822C26.4004 18.5569 26.6116 18.4476 26.7645 18.2754C26.9175 18.1033 27.0014 17.8805 27 17.65V14.322C26.9982 14.0873 26.9081 13.8619 26.7477 13.6908C26.5872 13.5197 26.3683 13.4156 26.1345 13.3992ZM25.1015 16.8203L22.3841 17.1C22.2046 17.121 22.0351 17.1939 21.8963 17.3098C21.7575 17.4256 21.6553 17.5795 21.6024 17.7525C21.4922 18.0742 21.3552 18.386 21.1929 18.6847C21.1054 18.8479 21.0684 19.0334 21.0867 19.2177C21.1049 19.402 21.1775 19.5767 21.2953 19.7195L23.0169 21.8542L21.8536 23.0288L19.7132 21.3042C19.5724 21.1901 19.4014 21.1196 19.2213 21.1014C19.0411 21.0832 18.8595 21.1181 18.6988 21.2017C18.4006 21.3643 18.0893 21.5015 17.7682 21.6119C17.5954 21.6649 17.4418 21.7672 17.3262 21.9063C17.2105 22.0453 17.1377 22.2151 17.1167 22.3949L16.8376 25.1169H15.1624L14.8833 22.3949C14.8623 22.2151 14.7895 22.0453 14.6738 21.9063C14.5582 21.7672 14.4046 21.6649 14.2318 21.6119C13.9107 21.5015 13.5994 21.3643 13.3012 21.2017C13.1383 21.1141 12.9531 21.077 12.7691 21.0953C12.5851 21.1135 12.4107 21.1863 12.2682 21.3042L10.1278 23.0288L8.96448 21.8635L10.6861 19.7195C10.8 19.5785 10.8704 19.4072 10.8886 19.2267C10.9068 19.0462 10.872 18.8644 10.7885 18.7034C10.6262 18.4047 10.4892 18.0929 10.379 17.7712C10.326 17.5981 10.2239 17.4443 10.0851 17.3284C9.94627 17.2125 9.77678 17.1396 9.5973 17.1186L6.87988 16.839V15.161L9.5973 14.8814C9.77678 14.8604 9.94627 14.7875 10.0851 14.6716C10.2239 14.5557 10.326 14.4019 10.379 14.2288C10.4892 13.9071 10.6262 13.5953 10.7885 13.2966C10.876 13.1335 10.913 12.9479 10.8947 12.7636C10.8765 12.5793 10.8039 12.4047 10.6861 12.2619L8.96448 10.1178L10.1278 8.95255L12.2682 10.6771C12.409 10.7912 12.5799 10.8617 12.7601 10.8799C12.9403 10.8981 13.1219 10.8633 13.2826 10.7797C13.5808 10.6171 13.8921 10.4799 14.2132 10.3695C14.386 10.3164 14.5395 10.2141 14.6552 10.0751C14.7709 9.93601 14.8437 9.76623 14.8646 9.58645L15.1438 6.86442H16.8003L17.0795 9.58645C17.1005 9.76623 17.1733 9.93601 17.2889 10.0751C17.4046 10.2141 17.5582 10.3164 17.731 10.3695C18.0521 10.4799 18.3634 10.6171 18.6616 10.7797C18.8266 10.8714 19.0155 10.9107 19.2033 10.8924C19.3911 10.8741 19.569 10.799 19.7132 10.6771L21.8536 8.95255L23.0169 10.1178L21.2953 12.2619C21.1813 12.4029 21.111 12.5741 21.0928 12.7546C21.0746 12.9351 21.1094 13.117 21.1929 13.278C21.3552 13.5767 21.4922 13.8885 21.6024 14.2102C21.6553 14.3832 21.7575 14.5371 21.8963 14.6529C22.0351 14.7688 22.2046 14.8417 22.3841 14.8627L25.1015 15.1424V16.8203Z" fill="#999999"/>
<path d="M16 12.21C15.2504 12.21 14.5177 12.4323 13.8944 12.8488C13.2711 13.2652 12.7854 13.8571 12.4985 14.5497C12.2116 15.2422 12.1366 16.0042 12.2828 16.7394C12.4291 17.4746 12.79 18.1499 13.3201 18.68C13.8501 19.21 14.5254 19.571 15.2606 19.7172C15.9958 19.8634 16.7578 19.7884 17.4504 19.5015C18.1429 19.2147 18.7348 18.7289 19.1513 18.1056C19.5677 17.4824 19.79 16.7496 19.79 16C19.79 14.9949 19.3907 14.0309 18.6799 13.3201C17.9692 12.6093 17.0052 12.21 16 12.21ZM16 17.79C15.646 17.79 15.2999 17.685 15.0055 17.4884C14.7112 17.2917 14.4817 17.0121 14.3463 16.685C14.2108 16.3579 14.1753 15.998 14.2444 15.6508C14.3135 15.3036 14.4839 14.9846 14.7343 14.7343C14.9846 14.484 15.3036 14.3135 15.6508 14.2444C15.998 14.1753 16.3579 14.2108 16.685 14.3463C17.0121 14.4818 17.2916 14.7112 17.4883 15.0056C17.685 15.2999 17.79 15.646 17.79 16C17.79 16.4748 17.6014 16.9301 17.2657 17.2657C16.93 17.6014 16.4747 17.79 16 17.79Z" fill="#999999"/>
</svg>
